<svg xmlns="http://www.w3.org/2000/svg" viewBox="0 0 64 64" role="img" aria-labelledby="title">
  <title>Tailwind CSS icon</title>
  <rect width="64" height="64" rx="16" fill="#0ea5e9"/>
  <path d="M18 26c3.2-7.2 8.4-10.8 15.6-10.8 10.8 0 12.8 8 19.6 8 3.6 0 6.4-1.6 8.8-4.8-3.2 7.2-8.4 10.8-15.6 10.8-10.8 0-12.8-8-19.6-8-3.6 0-6.4 1.6-8.8 4.8Zm-8 16c3.2-7.2 8.4-10.8 15.6-10.8 10.8 0 12.8 8 19.6 8 3.6 0 6.4-1.6 8.8-4.8-3.2 7.2-8.4 10.8-15.6 10.8-10.8 0-12.8-8-19.6-8-3.6 0-6.4 1.6-8.8 4.8Z" fill="#f8fafc"/>
</svg>
